<?xml version="1.0" encoding="utf-8"?>
<!-- Generator: Adobe Illustrator 24.1.0, SVG Export Plug-In . SVG Version: 6.00 Build 0)  -->
<svg version="1.1" id="圖層_1" xmlns="http://www.w3.org/2000/svg" xmlns:xlink="http://www.w3.org/1999/xlink" x="0px" y="0px"
	 viewBox="0 0 301.7 53.6" style="enable-background:new 0 0 301.7 53.6;" xml:space="preserve">
<style type="text/css">
	.st0{fill:#806E49;}
	.st1{font-family:'NotoSansCJKjp-Regular-83pv-RKSJ-H';}
	.st2{font-size:28.8756px;}
	.st3{fill:#A1CDEC;}
	.st4{fill:#FFFFFF;}
	.st5{font-family:'NotoSansCJKjp-Medium-83pv-RKSJ-H';}
	.st6{font-size:21.1158px;}
	.st7{fill:none;stroke:#27859C;stroke-width:5.6067;stroke-linecap:round;stroke-linejoin:round;stroke-miterlimit:10;}
</style>
<g>
	<g>
		<text transform="matrix(1 0 0 1 45.4949 36.7274)" class="st0 st1 st2">台灣水庫</text>
	</g>
	<path class="st3" d="M285.6,42.2h-97.4c-8.9,0-16.1-7.2-16.1-16.1v0c0-8.9,7.2-16.1,16.1-16.1h97.4c8.9,0,16.1,7.2,16.1,16.1v0
		C301.7,35,294.4,42.2,285.6,42.2z"/>
	<text transform="matrix(1 0 0 1 187.5078 33.6876)" class="st4 st5 st6">即 時 水 情</text>
	<path class="st7" d="M19.6,44.3c4.3,0,8.3-2.1,10.7-5.5c2.6-3.7,2.8-8.2,1.2-12.3c-1.4-3.5-3.6-6.6-5.5-9.7c-1.6-2.7-3.4-5.3-5-8
		c-0.6-1-2.1-1-2.7,0c-1.7,2.7-3.4,5.3-5,8c-1.9,3.2-4.1,6.3-5.5,9.7c-1.6,4.1-1.5,8.6,1.2,12.3C11.3,42.1,15.4,44.3,19.6,44.3"/>
</g>
</svg>
