<?xml version="1.0" encoding="utf-8"?>
<!-- Generator: Adobe Illustrator 24.1.0, SVG Export Plug-In . SVG Version: 6.00 Build 0)  -->
<svg version="1.1" id="圖層_1" xmlns="http://www.w3.org/2000/svg" xmlns:xlink="http://www.w3.org/1999/xlink" x="0px" y="0px"
	 viewBox="0 0 202.2 81.8" style="enable-background:new 0 0 202.2 81.8;" xml:space="preserve">
<style type="text/css">
	.st0{fill:#806E49;}
	.st1{fill:#6EC2C6;}
	.st2{fill:#FFFFFF;}
	.st3{fill:none;stroke:#27859C;stroke-width:7;stroke-linecap:round;stroke-linejoin:round;stroke-miterlimit:10;}
</style>
<g>
	<g>
		<g>
			<path class="st0" d="M74.6,7.4c3.8,3.1,8.4,7.6,10.4,10.9l-4,3c-0.6-1-1.4-2.2-2.5-3.5c-10.2,0.5-21,1-28.1,1.2l-0.3-4.6
				c1.8,0,3.8-0.1,5.9-0.2c2.2-3.4,4.4-7.6,5.7-11l5.3,1.7c-1.6,3-3.6,6.3-5.4,9.1c4.2-0.2,8.6-0.3,13.1-0.5
				c-1.2-1.2-2.5-2.4-3.7-3.4L74.6,7.4z M54.2,22.5h25.7v16.9H75V38H59v1.5h-4.7V22.5z M59,26.9v6.7H75v-6.7H59z"/>
			<path class="st0" d="M93,21.2c-1.1-1.2-3.6-2.9-5.6-3.9l2.5-3.2c2,0.9,4.5,2.4,5.7,3.6L93,21.2z M93.6,11.3
				c-1.1-1.3-3.5-3-5.4-4.2L90.8,4c1.9,1,4.4,2.7,5.6,3.9L93.6,11.3z M88.3,36.8c1.4-3,3.4-7.9,4.8-12.4l3.6,2.3
				c-1.2,4.1-2.8,8.6-4.4,12.3L88.3,36.8z M99.4,17.7c-0.5,1.7-1.2,3.6-1.9,4.9c-0.6-0.3-1.7-0.9-2.4-1.2c0.9-1.4,1.4-3.2,1.8-5
				l2.5,0.6v-1.5c-1.2,0.1-2.4,0.2-3.5,0.3l-0.3-2.8l2.4-0.1c0.3-0.4,0.7-0.9,1.1-1.4c-0.8-0.9-2-2-3-2.7l1.4-2.2
				c0.2,0.1,0.4,0.3,0.6,0.4c0.7-1.2,1.3-2.5,1.7-3.6l2.6,1.3c-0.8,1.3-1.7,2.7-2.4,3.8c0.3,0.3,0.6,0.5,0.8,0.8
				c0.6-0.9,1.2-1.8,1.6-2.5l2.3,1.3V7.3h9.2V8l1-1.4l0.5,0.4c0.7-1.2,1.4-2.6,1.8-3.5l2.6,1.3c-0.9,1.3-1.8,2.7-2.6,3.9
				c0.3,0.3,0.6,0.6,0.8,0.8c0.8-1,1.5-2,2-2.9l2.5,1.4c-1.3,1.6-2.7,3.4-4.1,4.9l2.1,0c-0.2-0.4-0.4-0.8-0.6-1.2l2.2-0.9
				c0.8,1.4,1.5,3.3,1.8,4.6l-2.3,1c0-0.3-0.1-0.6-0.2-0.9l-1.5,0.1v7.6H117v-5.3c-0.4,1.7-1.1,3.6-1.8,4.8
				c-0.5-0.3-1.4-0.8-2.1-1.2v1.3h-7.4v-5.8h7.4v3.8c0.6-1.3,1-2.8,1.4-4.2L117,17v-1.4l-3.3,0.2l-0.3-2.8l1.8,0
				c0.3-0.3,0.7-0.8,1-1.2c-0.6-0.8-1.4-1.7-2.3-2.5v0.4h-9.2V8.3c-1.1,1.5-2.4,3-3.6,4.4l1.7,0c-0.1-0.3-0.2-0.7-0.3-1l1.9-0.7
				c0.7,1.4,1.2,3.2,1.4,4.4l-2.1,0.8c0-0.3-0.1-0.7-0.2-1l-1.2,0.1v7.7h-2.9V17.7z M122.2,31.2c0,0-0.1,1.1-0.2,1.7
				c-0.6,3.1-1.3,4.8-2.4,5.6c-1,0.7-2,0.9-3.6,1c-1.2,0-3.6,0-6-0.1c-0.1-1-0.6-2.4-1.2-3.4c2.3,0.2,4.9,0.3,5.8,0.3
				c0.8,0,1.2,0,1.6-0.3c0.4-0.3,0.8-0.9,1.1-2h-15.2c-0.1,0.4-0.2,0.8-0.3,1.1l-4.1-0.5c0.7-2,1.4-4.8,1.9-7.2h16.5v-1.2H98.4v-2.6
				h21.9V30h-17.1l-0.3,1.2H122.2z M103.3,21.2c-0.2-1.1-0.5-2.9-0.9-4.2l2.2-0.5c0.4,1.3,0.8,3,1,4.1L103.3,21.2z M113.1,12.8h-7.3
				v-2.1h7.3V12.8z M105.8,13.7h7.3v2.1h-7.3V13.7z M112.7,6.3H106V4.1h6.7V6.3z M110.3,18.9h-1.9v1.7h1.9V18.9z M122.3,16.4
				c0.7,1.5,1.4,3.6,1.7,4.9l-2.4,0.8c-0.3-1.4-0.9-3.4-1.6-5L122.3,16.4z"/>
			<path class="st0" d="M141.2,13.9c-1.8,10.5-6,18.3-11.5,22.3c-0.8-1.1-2.7-2.9-3.8-3.6c4.5-3,7.9-8.3,9.6-15h-8.4v-4.6h10.1
				l0.8-0.2L141.2,13.9z M161.6,12.5c-3.1,3.3-6.9,6.9-10.1,9.3c2.7,4.6,6.4,8.4,11.1,10.6c-1.2,1-2.7,2.9-3.6,4.3
				c-5.6-3.2-9.5-8.3-12.3-14.5v11.4c0,2.8-0.6,4.2-2.2,4.9c-1.7,0.8-4.2,1-7.7,1c-0.2-1.5-1.1-3.8-1.8-5.1c2.5,0.1,5,0.1,5.8,0.1
				c0.8,0,1-0.3,1-0.9V3.5h4.9v6.8c0.7,2.7,1.6,5.3,2.7,7.8c2.7-2.5,5.8-5.8,7.8-8.6L161.6,12.5z"/>
			<path class="st0" d="M200.7,35.4h-12.5v4.2h-4.4v-4.2h-11.7v-3.7h11.7v-1.8h-9V17.8h9v-1.7h-10.1v-3.4h10.1v-2.1h-11.5V19
				c0,6.1-0.6,15-4.1,20.5c-0.8-0.8-2.6-2.1-3.7-2.6c3.2-5.1,3.4-12.5,3.4-17.9V6.5h13.8v-3h4.8v3h13.9v4h-12.2v2.1h11.2v3.4h-11.2
				v1.7h9.5v12.1h-9.5v1.8h12.5V35.4z M178.8,22.5h4.9v-1.9h-4.9V22.5z M183.8,27v-1.9h-4.9V27H183.8z M188.2,20.6v1.9h5.2v-1.9
				H188.2z M193.4,25.1h-5.2V27h5.2V25.1z"/>
		</g>
	</g>
	<path class="st1" d="M186,81.8H63.9c-8.9,0-16.1-7.2-16.1-16.1v0c0-8.9,7.2-16.1,16.1-16.1H186c8.9,0,16.1,7.2,16.1,16.1v0
		C202.1,74.6,194.9,81.8,186,81.8z"/>
	<g>
		<path class="st2" d="M80.9,67.2c1.4,1.8,2.8,4.2,3.4,5.7l-1.8,0.9c-0.2-0.6-0.5-1.3-0.8-2c-2.4,0.8-5,1.5-7,2l-0.6-2
			c0.4-0.1,0.9-0.2,1.5-0.3V56.6h7.9v9.9h-6.1v4.6c1.1-0.3,2.2-0.6,3.4-0.9c-0.5-0.8-1-1.5-1.4-2.2L80.9,67.2z M77.4,58.5v2.3h4.2
			v-2.3H77.4z M81.6,64.7v-2.2h-4.2v2.2H81.6z M92.7,69.3c0,1-0.2,1.7-0.9,2c-0.7,0.4-1.7,0.4-3.1,0.4c-0.1-0.6-0.4-1.6-0.7-2.2
			c1,0,1.9,0,2.2,0c0.3,0,0.4-0.1,0.4-0.4V58.6h-3.8v16.3h-2V56.6h7.8V69.3z"/>
		<path class="st2" d="M108.5,70.8h-4.4v1.8h-1.8V56.9h6.2V70.8z M104.1,58.6v4.2h2.5v-4.2H104.1z M106.6,69.1v-4.5h-2.5v4.5H106.6z
			 M118.5,63.7v2.1h2.3v1.7h-2.3v5.2c0,1-0.2,1.5-0.9,1.8c-0.7,0.3-1.8,0.3-3.5,0.3c-0.1-0.5-0.4-1.3-0.6-1.8c1.2,0,2.3,0,2.7,0
			c0.3,0,0.4-0.1,0.4-0.4v-5.2h-7.7v-1.7h7.7v-2.1h-7.8V62h5v-2.3h-4.2v-1.7h4.2v-2.4h2v2.4h4.4v1.7h-4.4V62h5.1v1.7H118.5z
			 M111.6,68.1c1,1.1,2.2,2.5,2.6,3.5l-1.7,1c-0.4-1-1.5-2.5-2.6-3.6L111.6,68.1z"/>
		<path class="st2" d="M136.9,61.2c-1,5.6-3.4,9.7-6.5,11.8c-0.3-0.4-1.1-1.2-1.6-1.5c2.6-1.7,4.7-4.7,5.7-8.7h-5.1v-2h5.8l0.4-0.1
			L136.9,61.2z M147.9,60.2c-1.7,1.8-3.9,3.9-5.6,5.3c1.6,2.7,3.7,4.9,6.4,6.1c-0.5,0.4-1.2,1.2-1.5,1.8c-3.4-1.8-5.7-5-7.3-8.9v7.8
			c0,1.3-0.3,1.9-1.1,2.3c-0.8,0.3-2.1,0.4-4,0.4c-0.1-0.6-0.5-1.6-0.8-2.2c1.4,0.1,2.8,0.1,3.2,0c0.4,0,0.6-0.1,0.6-0.5V55.6h2.1
			v3.8c0.4,1.6,1,3.1,1.6,4.5c1.6-1.4,3.5-3.4,4.7-5L147.9,60.2z"/>
		<path class="st2" d="M156.2,65c0.4-1.4,0.8-3.8,0.9-5.4l1.4,0.2c-0.1,1.7-0.4,4.1-0.8,5.7L156.2,65z M161.7,62.1
			c-0.2-0.7-0.7-2-1.1-3v15.7h-1.8V55.5h1.8V59l1.2-0.5c0.4,1,1,2.2,1.2,3L161.7,62.1z M175.8,62.3v1.5h-13.7v-1.5h5.8V61h-4.6v-1.4
			h4.6v-1.1h-5.1v-1.5h5.1v-1.6h1.9v1.6h5.3v1.5h-5.3v1.1h4.8V61h-4.8v1.2H175.8z M174.2,72.9c0,0.9-0.2,1.4-0.8,1.7
			c-0.7,0.3-1.6,0.3-3.1,0.3c-0.1-0.5-0.3-1.2-0.6-1.7c1,0.1,2,0,2.3,0c0.3,0,0.4-0.1,0.4-0.4v-1.1h-7v3.2h-1.8V64.7h10.7V72.9z
			 M165.4,66.2v1.3h7v-1.3H165.4z M172.4,70.3V69h-7v1.3H172.4z"/>
	</g>
	<path class="st3" d="M19.6,49.6C25,49.6,30,47,33,42.7c3.3-4.6,3.5-10.3,1.4-15.4c-1.7-4.3-4.4-8.2-6.8-12.2
		c-2-3.3-4.2-6.6-6.3-9.9C20.5,4,18.7,4,18,5.3c-2.1,3.3-4.3,6.6-6.3,9.9c-2.4,4-5.2,7.8-6.8,12.2c-2,5.1-1.8,10.8,1.4,15.4
		C9.3,47,14.3,49.6,19.6,49.6"/>
</g>
</svg>
